<svg width="68" height="77" viewBox="0 0 68 77" fill="none" xmlns="http://www.w3.org/2000/svg">
<rect width="68" height="77" fill="white"/>
<rect x="7" y="35" width="54" height="35" fill="#C4C4C4"/>
<path d="M43.2008 46.9079C43.2008 45.3048 41.8246 44 40.1337 44C38.4036 44 37.0273 45.3048 37.0667 46.9079C37.0667 48.511 38.4429 49.8158 40.1337 49.8158C41.8246 49.8158 43.2008 48.511 43.2008 46.9079Z" fill="#A2A2A2"/>
<path d="M22.3604 61H43.6333C44.8523 61 45.4421 59.6579 44.6164 58.875L40.1337 54.4013C39.5832 53.8794 38.7575 53.8794 38.207 54.364L36.5555 55.8553C36.2802 56.1162 35.8084 56.0789 35.6118 55.7434L30.8539 48.3246C30.3427 47.5044 29.1237 47.5044 28.5732 48.2873L21.2201 59.0241C20.6303 59.8816 21.2988 61 22.3604 61Z" fill="#A2A2A2"/>
<rect x="7" y="22" width="54" height="3" fill="#C4C4C4"/>
<rect x="7" y="28" width="44" height="3" fill="#C4C4C4"/>
<rect x="7" y="16" width="54" height="3" fill="#C4C4C4"/>
<rect x="7" y="7" width="20" height="6" fill="#A1A1A1"/>
</svg>
