<svg width="68" height="77" viewBox="0 0 68 77" fill="none" xmlns="http://www.w3.org/2000/svg">
<rect width="68" height="77" fill="white"/>
<rect x="8" y="8" width="52" height="61" rx="3" fill="white" stroke="#C4C4C4" stroke-width="2"/>
<rect x="13" y="52" width="31" height="3" fill="#C4C4C4"/>
<rect x="13" y="46" width="42" height="3" fill="#C4C4C4"/>
<rect x="13" y="58" width="20" height="6" rx="3" fill="#A1A1A1"/>
<circle cx="27" cy="27" r="14" fill="#C4C4C4"/>
<path d="M32.8005 22.0526C32.8005 20.9211 31.883 20 30.7558 20C29.6024 20 28.6849 20.9211 28.7111 22.0526C28.7111 23.1842 29.6286 24.1053 30.7558 24.1053C31.883 24.1053 32.8005 23.1842 32.8005 22.0526Z" fill="#A2A2A2"/>
<path d="M18.907 32H33.0889C33.9015 32 34.2948 31.0526 33.7442 30.5L30.7558 27.3421C30.3888 26.9737 29.8383 26.9737 29.4713 27.3158L28.3703 28.3684C28.1868 28.5526 27.8722 28.5263 27.7412 28.2895L24.5692 23.0526C24.2285 22.4737 23.4158 22.4737 23.0488 23.0263L18.1467 30.6053C17.7535 31.2105 18.1992 32 18.907 32Z" fill="#A2A2A2"/>
</svg>
