<svg width="68" height="77" viewBox="0 0 68 77" fill="none" xmlns="http://www.w3.org/2000/svg">
<rect width="68" height="77" fill="white"/>
<path d="M9 34L4 38L9 42V34Z" fill="#C4C4C4"/>
<path d="M59 42L64 38L59 34L59 42Z" fill="#C4C4C4"/>
<path d="M13 9C13 7.89543 13.8954 7 15 7H53C54.1046 7 55 7.89543 55 9V34H13V9Z" fill="#C4C4C4"/>
<path d="M44.2008 15.9079C44.2008 14.3048 42.8246 13 41.1337 13C39.4036 13 38.0273 14.3048 38.0667 15.9079C38.0667 17.511 39.4429 18.8158 41.1337 18.8158C42.8246 18.8158 44.2008 17.511 44.2008 15.9079Z" fill="#A2A2A2"/>
<path d="M23.3604 30H44.6333C45.8523 30 46.4421 28.6579 45.6164 27.875L41.1337 23.4013C40.5832 22.8794 39.7575 22.8794 39.207 23.364L37.5555 24.8553C37.2802 25.1162 36.8084 25.0789 36.6118 24.7434L31.8539 17.3246C31.3427 16.5044 30.1237 16.5044 29.5732 17.2873L22.2201 28.0241C21.6303 28.8816 22.2988 30 23.3604 30Z" fill="#A2A2A2"/>
<path d="M14 35H54V68C54 68.5523 53.5523 69 53 69H15C14.4477 69 14 68.5523 14 68V35Z" fill="white" stroke="#C4C4C4" stroke-width="2"/>
<rect x="19" y="55" width="30" height="3" fill="#C4C4C4"/>
<rect x="19" y="61" width="23" height="3" fill="#C4C4C4"/>
<rect x="19" y="49" width="30" height="3" fill="#C4C4C4"/>
<rect x="19" y="40" width="20" height="6" fill="#A1A1A1"/>
</svg>
