<svg width="68" height="77" viewBox="0 0 68 77" fill="none" xmlns="http://www.w3.org/2000/svg">
<rect width="68" height="77" fill="white"/>
<rect x="8" y="26" width="52" height="25" fill="white" stroke="#C4C4C4" stroke-width="2"/>
<path d="M19.9779 33C17.24 33 15 35.2348 15 37.9727C15 40.7105 17.24 42.9505 19.9779 42.9505C21.0305 42.9505 22.0053 42.6135 22.809 42.0535L25.5002 44.7394C25.8424 45.0869 26.4024 45.0869 26.7446 44.7394C27.0869 44.3972 27.0869 43.8424 26.7446 43.5002L24.0535 40.809C24.6187 40.0001 24.9505 39.0253 24.9505 37.9727C24.9505 35.2348 22.7105 33 19.9779 33V33ZM19.9779 34.7526C21.7616 34.7526 23.1927 36.1838 23.1927 37.9727C23.1927 39.7616 21.7616 41.1927 19.9779 41.1927C18.1889 41.1927 16.7578 39.7616 16.7578 37.9727C16.7578 36.1838 18.1889 34.7526 19.9779 34.7526V34.7526Z" fill="#A1A1A1"/>
</svg>
