<svg width="68" height="77" viewBox="0 0 68 77" fill="none" xmlns="http://www.w3.org/2000/svg">
<rect width="68" height="77" fill="white"/>
<path d="M12 9C12 7.89543 12.8954 7 14 7H54C55.1046 7 56 7.89543 56 9V23H12V9Z" fill="#C4C4C4"/>
<path d="M39.9505 11.7105C39.9505 10.7675 39.1477 10 38.1613 10C37.1521 10 36.3493 10.7675 36.3722 11.7105C36.3722 12.6535 37.175 13.4211 38.1613 13.4211C39.1477 13.4211 39.9505 12.6535 39.9505 11.7105Z" fill="#A2A2A2"/>
<path d="M27.7936 20H40.2028C40.9138 20 41.2579 19.2105 40.7762 18.75L38.1613 16.1184C37.8402 15.8114 37.3585 15.8114 37.0374 16.0965L36.074 16.9737C35.9135 17.1272 35.6382 17.1053 35.5235 16.9079L32.7481 12.5439C32.4499 12.0614 31.7388 12.0614 31.4177 12.5219L27.1284 18.8377C26.7843 19.3421 27.1743 20 27.7936 20Z" fill="#A2A2A2"/>
<path d="M13 22H55V38C55 38.5523 54.5523 39 54 39H14C13.4477 39 13 38.5523 13 38V22Z" fill="white" stroke="#C4C4C4" stroke-width="2"/>
<rect x="17" y="32" width="34" height="3" fill="#C4C4C4"/>
<rect x="17" y="26" width="20" height="3" fill="#A1A1A1"/>
<path d="M14 44H54C54.5523 44 55 44.4477 55 45V53C55 53.5523 54.5523 54 54 54H14C13.4477 54 13 53.5523 13 53V45C13 44.4477 13.4477 44 14 44Z" fill="white" stroke="#C4C4C4" stroke-width="2"/>
<path d="M14 59H54C54.5523 59 55 59.4477 55 60V68C55 68.5523 54.5523 69 54 69H14C13.4477 69 13 68.5523 13 68V60C13 59.4477 13.4477 59 14 59Z" fill="white" stroke="#C4C4C4" stroke-width="2"/>
<rect x="17" y="48" width="29" height="2" fill="#A1A1A1"/>
<rect x="17" y="63" width="20" height="2" fill="#A1A1A1"/>
</svg>
