<svg width="68" height="77" viewBox="0 0 68 77" fill="none" xmlns="http://www.w3.org/2000/svg">
<rect width="68" height="77" fill="white"/>
<rect x="8" y="16" width="14" height="20" rx="1" stroke="#C4C4C4" stroke-width="2"/>
<rect x="8" y="41" width="14" height="20" rx="1" stroke="#C4C4C4" stroke-width="2"/>
<rect x="27" y="16" width="14" height="20" rx="1" stroke="#C4C4C4" stroke-width="2"/>
<rect x="27" y="41" width="14" height="20" rx="1" stroke="#C4C4C4" stroke-width="2"/>
<rect x="46" y="16" width="14" height="20" rx="1" stroke="#C4C4C4" stroke-width="2"/>
<rect x="46" y="41" width="14" height="20" rx="1" stroke="#C4C4C4" stroke-width="2"/>
<path d="M7 17C7 15.8954 7.89543 15 9 15H21C22.1046 15 23 15.8954 23 17V25H7V17Z" fill="#C4C4C4"/>
<path d="M7 42C7 40.8954 7.89543 40 9 40H21C22.1046 40 23 40.8954 23 42V50H7V42Z" fill="#C4C4C4"/>
<path d="M26 17C26 15.8954 26.8954 15 28 15H40C41.1046 15 42 15.8954 42 17V25H26V17Z" fill="#C4C4C4"/>
<path d="M26 42C26 40.8954 26.8954 40 28 40H40C41.1046 40 42 40.8954 42 42V50H26V42Z" fill="#C4C4C4"/>
<path d="M45 17C45 15.8954 45.8954 15 47 15H59C60.1046 15 61 15.8954 61 17V25H45V17Z" fill="#C4C4C4"/>
<path d="M45 42C45 40.8954 45.8954 40 47 40H59C60.1046 40 61 40.8954 61 42V50H45V42Z" fill="#C4C4C4"/>
<rect x="11" y="27" width="8" height="2" fill="#A1A1A1"/>
<rect x="11" y="52" width="8" height="2" fill="#A1A1A1"/>
<rect x="30" y="27" width="8" height="2" fill="#A1A1A1"/>
<rect x="30" y="52" width="8" height="2" fill="#A1A1A1"/>
<rect x="49" y="27" width="8" height="2" fill="#A1A1A1"/>
<rect x="49" y="52" width="8" height="2" fill="#A1A1A1"/>
<rect x="11" y="31" width="5" height="2" fill="#A1A1A1"/>
<rect x="11" y="56" width="5" height="2" fill="#A1A1A1"/>
<rect x="30" y="31" width="5" height="2" fill="#A1A1A1"/>
<rect x="30" y="56" width="5" height="2" fill="#A1A1A1"/>
<rect x="49" y="31" width="5" height="2" fill="#A1A1A1"/>
<rect x="49" y="56" width="5" height="2" fill="#A1A1A1"/>
</svg>
