<svg width="68" height="77" viewBox="0 0 68 77" fill="none" xmlns="http://www.w3.org/2000/svg">
<rect width="68" height="77" fill="white"/>
<rect x="13" y="15" width="42" height="47" rx="4" fill="#C4C4C4"/>
<path d="M44.2008 31.9079C44.2008 30.3048 42.8246 29 41.1337 29C39.4036 29 38.0273 30.3048 38.0667 31.9079C38.0667 33.511 39.4429 34.8158 41.1337 34.8158C42.8246 34.8158 44.2008 33.511 44.2008 31.9079Z" fill="#A2A2A2"/>
<path d="M23.3604 46H44.6333C45.8523 46 46.4421 44.6579 45.6164 43.875L41.1337 39.4013C40.5832 38.8794 39.7575 38.8794 39.207 39.364L37.5555 40.8553C37.2802 41.1162 36.8084 41.0789 36.6118 40.7434L31.8539 33.3246C31.3427 32.5044 30.1237 32.5044 29.5732 33.2873L22.2201 44.0241C21.6303 44.8816 22.2988 46 23.3604 46Z" fill="#A2A2A2"/>
<path d="M9 34L4 38L9 42V34Z" fill="#C4C4C4"/>
<path d="M59 42L64 38L59 34L59 42Z" fill="#C4C4C4"/>
</svg>
